<?xml version="1.0" encoding="UTF-8" ?>
<!DOCTYPE svg PUBLIC "-//W3C//DTD SVG 1.1//EN" "http://www.w3.org/Graphics/SVG/1.1/DTD/svg11.dtd">
<svg width="1400pt" height="800pt" viewBox="0 0 1400 500" version="1.1" xmlns="http://www.w3.org/2000/svg">
<g id="#ffffffff">
</g>
<g id="#ffca08ff">
<path fill="#ffca08" opacity="1.00" d=" M 393.95 0.00 L 612.44 0.00 C 576.07 81.83 539.62 163.63 503.19 245.44 C 469.03 322.21 434.84 398.97 400.67 475.73 C 327.80 475.76 254.93 475.75 182.07 475.74 C 252.70 317.16 323.27 158.55 393.95 0.00 Z" />
</g>
<g id="#fa9d1cff">
<path fill="#fa9d1c" opacity="1.00" d=" M 612.44 0.00 L 612.50 0.00 C 635.39 51.55 658.42 103.04 681.30 154.60 L 681.46 154.96 C 665.85 189.01 650.94 223.38 635.62 257.56 C 617.99 296.99 600.50 336.49 582.89 375.93 C 579.17 383.85 576.18 392.11 571.92 399.76 C 548.99 348.33 526.11 296.87 503.19 245.44 C 539.62 163.63 576.07 81.83 612.44 0.00 Z" />
</g>
<g id="#9e9fa3ff">
<path fill="#9e9fa3" opacity="1.00" d=" M 750.19 0.00 L 750.25 0.00 C 786.66 81.85 823.11 163.68 859.56 245.51 C 836.45 296.97 813.68 348.59 790.63 400.08 C 754.11 318.43 717.85 236.67 681.46 154.96 L 681.30 154.60 C 704.39 103.12 727.28 51.55 750.19 0.00 Z" />
</g>
<g id="#636466ff">
<path fill="#636466" opacity="1.00" d=" M 750.25 0.00 L 968.74 0.00 C 1039.46 158.54 1110.00 317.16 1180.65 475.73 C 1107.80 475.80 1034.94 475.74 962.09 475.76 C 927.88 399.02 893.72 322.26 859.56 245.51 C 823.11 163.68 786.66 81.85 750.25 0.00 Z" />

</g>
<g id="#f37022ff">
<path fill="#f37022" opacity="1.00" d=" M 681.46 154.96 C 717.85 236.67 754.11 318.43 790.63 400.08 C 780.85 421.57 764.43 439.93 744.30 452.26 C 714.48 470.78 676.39 474.98 643.16 463.79 C 611.92 453.51 585.44 429.75 571.92 399.76 C 576.18 392.11 579.17 383.85 582.89 375.93 C 600.50 336.49 617.99 296.99 635.62 257.56 C 650.94 223.38 665.85 189.01 681.46 154.96 Z" />
</g>
</svg>
